<svg width="25" height="24" viewBox="0 0 25 24" fill="none" xmlns="http://www.w3.org/2000/svg">
<path d="M19.6565 5.57906H19.2567L15.8789 2.19906C15.747 2.06922 15.5693 1.99646 15.3843 1.99646C15.1992 1.99646 15.0215 2.06922 14.8896 2.19906C14.6198 2.46906 14.6198 2.90906 14.8896 3.18906L17.278 5.57906H7.56437L9.95281 3.18906C10.2226 2.91906 10.2226 2.47906 9.95281 2.19906C9.82086 2.06922 9.6432 1.99646 9.45814 1.99646C9.27307 1.99646 9.09542 2.06922 8.96346 2.19906L5.59566 5.57906H5.19592C4.29651 5.57906 2.42773 5.57906 2.42773 8.13906C2.42773 9.10906 2.6276 9.74906 3.04733 10.1691C3.28717 10.4191 3.57698 10.5491 3.88678 10.6191C4.17659 10.6891 4.48639 10.6991 4.78619 10.6991H20.0562C20.366 10.6991 20.6558 10.6791 20.9356 10.6191C21.7751 10.4191 22.4147 9.81906 22.4147 8.13906C22.4147 5.57906 20.5459 5.57906 19.6565 5.57906ZM19.4666 12.0001H5.29586C4.67626 12.0001 4.20657 12.5501 4.30651 13.1601L5.14596 18.3001C5.42577 20.0201 6.17528 22.0001 9.50311 22.0001H15.1094C18.4772 22.0001 19.0768 20.3101 19.4366 18.4201L20.446 13.1901C20.4745 13.0454 20.4706 12.8962 20.4345 12.7532C20.3985 12.6103 20.3312 12.4771 20.2376 12.3633C20.1439 12.2494 20.0262 12.1578 19.8928 12.095C19.7595 12.0322 19.6139 11.9998 19.4666 12.0001ZM12.4212 19.5001C11.2956 19.4974 10.2168 19.0488 9.42087 18.2523C8.62494 17.4559 8.17662 16.3764 8.17398 15.2501C8.17398 14.8401 8.51375 14.5001 8.92349 14.5001C9.33322 14.5001 9.673 14.8401 9.673 15.2501C9.673 16.7701 10.9022 18.0001 12.4212 18.0001C13.9402 18.0001 15.1694 16.7701 15.1694 15.2501C15.1694 14.8401 15.5092 14.5001 15.9189 14.5001C16.3286 14.5001 16.6684 14.8401 16.6684 15.2501C16.6658 16.3764 16.2175 17.4559 15.4215 18.2523C14.6256 19.0488 13.5468 19.4974 12.4212 19.5001Z" fill="black"/>
</svg>
