<svg width="25" height="24" viewBox="0 0 25 24" fill="none" xmlns="http://www.w3.org/2000/svg">
<path d="M17.1093 3.102C15.3005 3.102 13.6815 3.982 12.6722 5.332C12.1566 4.64081 11.4872 4.07939 10.717 3.69229C9.94677 3.3052 9.09698 3.10308 8.23508 3.102C5.16708 3.102 2.67871 5.602 2.67871 8.692C2.67871 9.882 2.86859 10.982 3.19837 12.002C4.77734 17.002 9.64416 19.992 12.0526 20.812C12.3924 20.932 12.952 20.932 13.2918 20.812C15.7002 19.992 20.567 17.002 22.146 12.002C22.4758 10.982 22.6656 9.882 22.6656 8.692C22.6656 5.602 20.1773 3.102 17.1093 3.102Z" fill="black"/>
</svg>
