<svg width="25" height="24" viewBox="0 0 25 24" fill="none" xmlns="http://www.w3.org/2000/svg">
<path d="M20.1643 12V18C20.1643 20.21 18.3755 22 16.167 22H8.17219C5.96363 22 4.1748 20.21 4.1748 18V12C4.1748 11.45 4.62451 11 5.17415 11H7.14286C7.6925 11 8.14221 11.45 8.14221 12V15.14C8.14325 15.671 8.35384 16.1802 8.72816 16.5566C9.10248 16.933 9.61022 17.1463 10.1409 17.15C10.5207 17.15 10.9004 17.04 11.2302 16.82L12.1796 16.2L13.059 16.79C13.6686 17.2 14.4481 17.25 15.0977 16.9C15.7572 16.55 16.167 15.88 16.167 15.13V12C16.167 11.45 16.6167 11 17.1663 11H19.165C19.7146 11 20.1643 11.45 20.1643 12ZM21.6634 7V8C21.6634 9.1 21.1337 10 19.6647 10H4.67447C3.14547 10 2.67578 9.1 2.67578 8V7C2.67578 5.9 3.14547 5 4.67447 5H19.6647C21.1337 5 21.6634 5.9 21.6634 7Z" fill="black"/>
<path d="M11.8085 5.001H6.29212C6.1278 4.82266 6.03909 4.58745 6.04468 4.34494C6.05028 4.10243 6.14974 3.87157 6.3221 3.701L7.74117 2.281C7.92077 2.10329 8.16316 2.00362 8.41573 2.00362C8.66831 2.00362 8.91069 2.10329 9.09029 2.281L11.8085 5.001ZM18.0374 5.001H12.521L15.2393 2.281C15.4189 2.10329 15.6613 2.00362 15.9138 2.00362C16.1664 2.00362 16.4088 2.10329 16.5884 2.281L18.0075 3.701C18.3672 4.061 18.3772 4.631 18.0374 5.001ZM14.139 11C14.6886 11 15.1383 11.45 15.1383 12V15.13C15.1383 15.93 14.2489 16.41 13.5893 15.96L12.6899 15.36C12.5268 15.2525 12.3357 15.1952 12.1403 15.1952C11.9449 15.1952 11.7538 15.2525 11.5907 15.36L10.6513 15.98C9.9917 16.42 9.11228 15.94 9.11228 15.15V12C9.11228 11.45 9.56198 11 10.1116 11H14.139Z" fill="black"/>
</svg>
