<svg width="25" height="24" viewBox="0 0 25 24" fill="none" xmlns="http://www.w3.org/2000/svg">
<path d="M10.9263 15.5C10.5163 15.5 10.1763 15.84 10.1763 16.25V17.75C10.1763 18.16 10.5163 18.5 10.9263 18.5C11.3363 18.5 11.6763 18.16 11.6763 17.75V16.25C11.6763 15.84 11.3363 15.5 10.9263 15.5Z" fill="black"/>
<path d="M22.9176 21.249H21.9182V9.979C21.9182 9.359 21.6384 8.779 21.1487 8.399L14.1533 2.959C13.4338 2.389 12.4145 2.389 11.6949 2.959L4.69951 8.399C4.20983 8.779 3.93001 9.359 3.93001 9.969L3.88004 21.249H2.93066C2.73188 21.249 2.54124 21.328 2.40068 21.4687C2.26012 21.6093 2.18115 21.8001 2.18115 21.999C2.18115 22.1979 2.26012 22.3887 2.40068 22.5293C2.54124 22.67 2.73188 22.749 2.93066 22.749H22.9176C23.1164 22.749 23.307 22.67 23.4476 22.5293C23.5881 22.3887 23.6671 22.1979 23.6671 21.999C23.6671 21.8001 23.5881 21.6093 23.4476 21.4687C23.307 21.328 23.1164 21.249 22.9176 21.249ZM11.4251 6.749H14.4231C14.8329 6.749 15.1727 7.089 15.1727 7.499C15.1727 7.909 14.8329 8.249 14.4231 8.249H11.4251C11.0154 8.249 10.6756 7.909 10.6756 7.499C10.6756 7.089 11.0154 6.749 11.4251 6.749ZM17.9209 21.249H7.92739V12.499C7.92739 11.669 8.59696 10.999 9.42641 10.999H16.4218C17.2513 10.999 17.9209 11.669 17.9209 12.499V21.249Z" fill="black"/>
</svg>
